# xmcd CD database file
#
# Track frame offsets:
#	260
#	14820
#	25485
#	38745
#	47760
#	64653
#	78518
#	91003
#	102868
#	113533
#	124470
#	141258
#
# Disc length: 2071 seconds
#
# Revision: 0
# Processed by: cddbd v1.5PL3 Copyright (c) Steve Scherf et al.
# Submitted via: CDex 1.51
#
DISCID=9f08140c
DTITLE=Tumbleweeds - Tumbleweeds
DYEAR=1974
DGENRE=Country
TTITLE0=I Believe In Music
TTITLE1=You're Still On My Mind
TTITLE2=Somewhere Between
TTITLE3=Mojave
TTITLE4=Me And Bobby McGee
TTITLE5=Southern Queen
TTITLE6=Everybody Has His Own Dogs
TTITLE7=Reno
TTITLE8=Lead Me On
TTITLE9=Tumbleweeds Polka
TTITLE10=Kentucky Hills Of Tennessee
TTITLE11=Country Girl
EXTD=YEAR: 1974
EXTT0=
EXTT1=
EXTT2=
EXTT3=
EXTT4=
EXTT5=
EXTT6=
EXTT7=
EXTT8=
EXTT9=
EXTT10=
EXTT11=
PLAYORDER=
